#!OML:ASF H:\GeneralSubjects\Female5\Project 1\Capture day 1\Session 1\Female5.ASF
:FULLY-SPECIFIED
:DEGREES
144
root 5.31854 15.7363 -0.247892 -15.1871 -85.8163 18.5434
lowerback 6.72612 -0.198962 -2.19868
upperback -10.5032 -0.497527 3.29395
thorax -15.4327 0.151257 5.07941
lowerneck -14.0525 -0.871168 -2.85639
upperneck 24.3011 -1.21558 1.27953
head 10.0778 -0.825757 0.752333
rclavicle 0 2.94201e-014
rhumerus -2.44053 61.3792 -66.9584
rradius 85.4199
rwrist -25.2832
rhand -12.3097 -16.6819
rfingers 7.12502
rthumb 13.7585 -46.2069
lclavicle 0 2.94201e-014
lhumerus -17.102 -34.93 92.9349
lradius 70.0603
lwrist 16.3806
lhand -16.0723 28.6503
lfingers 7.12502
lthumb 10.1304 58.3864
rfemur -29.5251 -0.246025 25.46
rtibia 35.7722
rfoot -23.6963 -14.4766
rtoes -13.1069
lfemur -3.1102 -14.7214 -36.5625
ltibia 13.761
lfoot -17.8266 10.2123
ltoes -66.0774
145
root 5.06236 15.748 -0.241584 -18.1955 -85.4827 21.4536
lowerback 6.71346 -0.345991 -2.45776
upperback -10.5295 -0.736465 3.29282
thorax -15.4312 0.0696294 5.27246
lowerneck -13.9538 -0.666334 -2.73346
upperneck 24.5113 -1.00713 1.40928
head 10.1289 -0.70905 0.80397
rclavicle 2.06736e-014 -4.29375e-014
rhumerus 1.31725 58.8905 -65.2869
rradius 87.2297
rwrist -29.447
rhand -12.5407 -15.5694
rfingers 7.12502
rthumb 13.5359 -45.1094
lclavicle 2.06736e-014 -4.29375e-014
lhumerus -14.3967 -34.1949 91.938
lradius 72.6696
lwrist 19.1714
lhand -16.045 27.6079
lfingers 7.12502
lthumb 10.1567 57.3428
rfemur -29.4809 1.74859 24.4593
rtibia 29.5521
rfoot -23.0811 -15.8859
rtoes -19.453
lfemur -1.63783 -14.8085 -37.2485
ltibia 13.3107
lfoot -17.8885 10.5409
ltoes -66.5433
146
root 4.80475 15.7542 -0.240203 -20.188 -85.1458 23.3977
lowerback 6.70152 -0.492296 -2.69839
upperback -10.5767 -0.97178 3.30464
thorax -15.4545 -0.0108034 5.4703
lowerneck -13.856 -0.500274 -2.29453
upperneck 24.6283 -0.842352 1.21209
head 10.1452 -0.619206 0.681037
rclavicle -2.78299e-015 -7.95139e-015
rhumerus 4.38992 56.1801 -64.377
rradius 88.93
rwrist -33.9632
rhand -12.7825 -15.1634
rfingers 7.12502
rthumb 13.3029 -44.7188
lclavicle -2.78299e-015 -7.95139e-015
lhumerus -11.9218 -33.3124 91.1274
lradius 75.523
lwrist 22.95
lhand -16.8169 27.8884
lfingers 7.12502
lthumb 9.41203 57.6582
rfemur -28.9899 4.48922 23.088
rtibia 22.587
rfoot -23.1111 -17.0807
rtoes -22.0583
lfemur -0.251058 -14.9266 -37.8422
ltibia 12.9131
lfoot -18.0562 10.3111
ltoes -66.2064
147
root 4.54217 15.7557 -0.244689 -23.1197 -84.7483 26.3545
lowerback 6.60475 -0.632548 -3.21992
upperback -10.6445 -1.23601 3.3439
thorax -15.4421 -0.0713176 5.86215
lowerneck -13.7344 -0.343464 -2.0538
upperneck 24.7014 -0.672568 1.14451
head 10.1434 -0.52942 0.637943
rclavicle -7.55382e-015 -1.59028e-015
rhumerus 6.77311 53.2339 -64.1727
rradius 90.6034
rwrist -37.9755
rhand -12.2798 -15.8986
rfingers 7.12502
rthumb 13.7873 -45.4217
lclavicle -7.55382e-015 -1.59028e-015
lhumerus -9.82627 -32.146 90.6613
lradius 78.4187
lwrist 26.9204
lhand -18.1996 28.1968
lfingers 7.12502
lthumb 8.07767 58.0224
rfemur -28.2808 8.33182 20.9885
rtibia 15.3561
rfoot -23.6314 -17.5752
rtoes -17.4816
lfemur 1.03479 -14.7925 -38.4655
ltibia 12.4908
lfoot -18.051 9.89494
ltoes -66.157
148
root 4.27094 15.7511 -0.25468 -24.4682 -84.3102 27.8063
lowerback 6.27519 -0.671606 -3.52422
upperback -10.7741 -1.35183 3.19563
thorax -15.3736 -0.106465 5.88001
lowerneck -13.1015 -0.294664 -1.79499
upperneck 24.4141 -0.710005 1.25367
head 9.91787 -0.51253 0.627628
rclavicle 8.34896e-015 -1.43125e-014
rhumerus 8.21414 50.2015 -64.6923
rradius 92.389
rwrist -43.1675
rhand -13.4106 -15.9669
rfingers 7.12502
rthumb 12.6974 -45.5609
lclavicle 8.34896e-015 -1.43125e-014
lhumerus -7.87746 -31.4128 90.4236
lradius 80.8941
lwrist 30.4926
lhand -20.0398 28.5816
lfingers 7.12502
lthumb 6.30136 58.4679
rfemur -27.7061 13.3851 18.3288
rtibia 8.78843
rfoot -24.7282 -20.4067
rtoes -18.4618
lfemur 2.10444 -14.3852 -38.8559
ltibia 12.2431
lfoot -17.9998 9.43984
ltoes -66.8119
149
root 3.99552 15.7384 -0.271475 -23.4388 -83.8912 26.9095
lowerback 6.08168 -0.836699 -3.91146
upperback -10.9888 -1.63114 3.30396
thorax -15.4733 -0.18142 6.28044
lowerneck -12.7374 -0.15077 -1.39019
upperneck 24.4673 -0.545529 0.959001
head 9.86231 -0.438932 0.475708
rclavicle -1.98785e-015 -1.43125e-014
rhumerus 9.66892 47.5949 -65.1039
rradius 94.0025
rwrist -48.2674
rhand -14.0268 -15.8149
rfingers 7.12502
rthumb 12.1033 -45.4449
lclavicle -1.98785e-015 -1.43125e-014
lhumerus -6.16521 -30.216 90.4951
lradius 83.0161
lwrist 33.7183
lhand -21.6733 28.5148
lfingers 7.12502
lthumb 4.72421 58.4421
rfemur -27.6695 19.9318 15.0058
rtibia 3.46949
rfoot -25.7449 -25.4593
rtoes -21.2773
lfemur 3.03035 -13.9783 -38.9144
ltibia 12.206
lfoot -17.975 8.83772
ltoes -67.3382
150
root 3.72042 15.716 -0.294033 -22.1158 -83.3788 25.7511
lowerback 5.83959 -1.0423 -4.06198
upperback -11.039 -1.92628 3.34176
thorax -15.3325 -0.307325 6.45211
lowerneck -13.258 -0.163807 -1.45812
upperneck 24.6773 -0.522508 0.906608
head 10.0377 -0.437781 0.471767
rclavicle 2.10712e-014 0
rhumerus 11.4107 44.9519 -65.3584
rradius 95.4611
rwrist -53.6465
rhand -14.4645 -15.2286
rfingers 7.12502
rthumb 11.6812 -44.8829
lclavicle 2.10712e-014 0
lhumerus -4.13081 -29.0083 90.4151
lradius 84.8574
lwrist 36.7795
lhand -21.5895 26.6283
lfingers 7.12502
lthumb 4.80514 56.5538
rfemur -28.892 28.7405 9.94535
rtibia -0.36555
rfoot -30.9467 -31.1608
rtoes -16.3535
lfemur 3.77339 -13.5195 -38.8866
ltibia 12.5091
lfoot -17.9615 8.01405
ltoes -67.5632
151
root 3.44164 15.6836 -0.316811 -21.0681 -82.7645 24.8197
lowerback 5.99636 -1.33982 -4.28698
upperback -11.2802 -2.37651 3.43487
thorax -15.6621 -0.468354 6.79503
lowerneck -13.5078 0.0228309 -1.47428
upperneck 24.8615 -0.216604 0.778385
head 10.1481 -0.313276 0.46788
rclavicle -1.03368e-014 0
rhumerus 12.7129 42.8658 -65.9781
rradius 96.8583
rwrist -58.716
rhand -14.9454 -15.1752
rfingers 7.12502
rthumb 11.2174 -44.8553
lclavicle -1.03368e-014 0
lhumerus -2.63898 -27.7148 90.4139
lradius 86.4067
lwrist 39.5735
lhand -20.7017 24.6929
lfingers 7.12502
lthumb 5.66232 54.5973
rfemur -28.3994 29.2592 9.48018
rtibia -2.28299
rfoot -29.6852 -29.5004
rtoes -19.493
lfemur 4.30015 -12.8721 -38.8778
ltibia 13.3652
lfoot -18.2008 6.81268
ltoes -67.4827
152
root 3.15952 15.6439 -0.336443 -19.4385 -82.1717 23.2126
lowerback 6.05156 -1.59606 -4.3854
upperback -11.4794 -2.74594 3.54698
thorax -15.8844 -0.609126 7.06629
lowerneck -13.5748 0.0925498 -1.69621
upperneck 25.0197 -0.0322859 0.650463
head 10.2162 -0.267348 0.483672
rclavicle -1.86858e-014 1.59028e-014
rhumerus 13.9571 40.959 -66.4702
rradius 98.0786
rwrist -62.9932
rhand -15.934 -15.1024
rfingers 7.12502
rthumb 10.2638 -44.832
lclavicle -1.86858e-014 1.59028e-014
lhumerus -1.16228 -26.9919 90.1117
lradius 87.7833
lwrist 42.301
lhand -20.0489 23.3705
lfingers 7.12502
lthumb 6.29258 53.257
rfemur -28.0193 29.7324 9.10431
rtibia -3.61922
rfoot -30.2944 -26.4716
rtoes -14.5527
lfemur 4.72649 -12.174 -38.7814
ltibia 14.5953
lfoot -18.5963 5.43287
ltoes -66.9062
153
root 2.87746 15.5975 -0.354811 -18.0789 -81.5099 21.866
lowerback 6.02696 -1.84037 -4.49936
upperback -11.6219 -3.09386 3.66122
thorax -15.9836 -0.743493 7.33522
lowerneck -13.5345 0.164786 -1.74576
upperneck 24.9719 0.243044 0.0515106
head 10.1897 -0.215349 0.31526
rclavicle 3.57812e-014 -3.65764e-014
rhumerus 15.3867 39.2441 -66.5725
rradius 99.0655
rwrist -66.9422
rhand -17.2703 -14.7979
rfingers 7.12502
rthumb 8.97456 -44.5871
lclavicle 3.57812e-014 -3.65764e-014
lhumerus 0.288571 -26.498 89.7914
lradius 89.0038
lwrist 44.8731
lhand -19.5078 22.2437
lfingers 7.12502
lthumb 6.81495 52.1141
rfemur -28.5052 30.1103 8.58918
rtibia -2.24614
rfoot -29.9633 -24.2324
rtoes -14.9573
lfemur 5.07256 -11.5499 -38.7408
ltibia 16.0539
lfoot -19.0807 4.52868
ltoes -66.4323
154
root 2.58742 15.5476 -0.37455 -17.3985 -80.7998 21.1544
lowerback 5.89278 -2.04695 -4.6404
upperback -11.7268 -3.39737 3.683
thorax -15.9713 -0.86793 7.49172
lowerneck -13.322 0.195022 -1.70214
upperneck 24.8139 0.484389 -0.763286
head 10.0936 -0.194526 0.0508519
rclavicle 2.50469e-014 -2.8625e-014
rhumerus 16.6144 37.5274 -66.7376
rradius 99.7921
rwrist -70.8839
rhand -18.2833 -14.3003
rfingers 7.12502
rthumb 7.99694 -44.129
lclavicle 2.50469e-014 -2.8625e-014
lhumerus 1.5699 -26.16 89.6185
lradius 90.0421
lwrist 47.5897
lhand -19.4206 22.0885
lfingers 7.12502
lthumb 6.89913 51.9561
rfemur -29.093 30.4759 8.00501
rtibia -0.0611347
rfoot -29.7696 -23.704
rtoes -12.954
lfemur 5.45992 -11.0131 -38.7993
ltibia 17.6481
lfoot -19.5937 4.20049
ltoes -66.5045
155
root 2.28964 15.4977 -0.397355 -16.5614 -80.1885 20.1953
lowerback 5.78047 -2.23122 -4.67952
upperback -11.8109 -3.65269 3.72453
thorax -15.9563 -0.980892 7.60353
lowerneck -13.1212 0.130794 -1.97169
upperneck 24.7578 0.632658 -1.4806
head 10.0389 -0.23803 -0.137796
rclavicle 1.11319e-014 -1.59028e-015
rhumerus 17.652 35.9994 -67.1507
rradius 100.333
rwrist -74.6212
rhand -18.3995 -14.0054
rfingers 7.12502
rthumb 7.8848 -43.8383
lclavicle 1.11319e-014 -1.59028e-015
lhumerus 2.76691 -25.8023 89.3843
lradius 91.0517
lwrist 50.8324
lhand -19.3658 23.3672
lfingers 7.12502
lthumb 6.95206 53.233
rfemur -27.9251 26.6799 10.4756
rtibia 1.59816
rfoot -26.5705 -19.5347
rtoes -11.4644
lfemur 5.88841 -10.4163 -38.6779
ltibia 19.3374
lfoot -19.826 3.84836
ltoes -66.5892
